<svg width="34" height="34" viewBox="0 0 34 34" fill="none" xmlns="http://www.w3.org/2000/svg">
<path d="M19.8334 2.83325V8.49992C19.8334 9.25137 20.1319 9.97204 20.6633 10.5034C21.1946 11.0347 21.9153 11.3333 22.6667 11.3333H28.3334M14.1667 12.7499H11.3334M22.6667 18.4166H11.3334M22.6667 24.0833H11.3334M21.2501 2.83325H8.50008C7.74863 2.83325 7.02797 3.13176 6.49661 3.66312C5.96526 4.19447 5.66675 4.91514 5.66675 5.66659V28.3333C5.66675 29.0847 5.96526 29.8054 6.49661 30.3367C7.02797 30.8681 7.74863 31.1666 8.50008 31.1666H25.5001C26.2515 31.1666 26.9722 30.8681 27.5035 30.3367C28.0349 29.8054 28.3334 29.0847 28.3334 28.3333V9.91659L21.2501 2.83325Z" stroke="#FFFFFF" stroke-width="2" stroke-linecap="round" stroke-linejoin="round"/>
</svg>
