<svg width="22" height="22" viewBox="0 0 22 22" fill="none" xmlns="http://www.w3.org/2000/svg">
<path d="M11 1V16M11 16L7 11M11 16L15 11M7 3.5H3C2.46957 3.5 1.96086 3.76339 1.58579 4.23223C1.21071 4.70107 1 5.33696 1 6V18.5C1 19.163 1.21071 19.7989 1.58579 20.2678C1.96086 20.7366 2.46957 21 3 21H19C19.5304 21 20.0391 20.7366 20.4142 20.2678C20.7893 19.7989 21 19.163 21 18.5V6C21 5.33696 20.7893 4.70107 20.4142 4.23223C20.0391 3.76339 19.5304 3.5 19 3.5H15" stroke="blue" stroke-width="2" stroke-linecap="round" stroke-linejoin="round"/>
</svg>
